<?xml version="1.0" encoding="utf-8"?>
<!-- Generator: Adobe Illustrator 26.1.0, SVG Export Plug-In . SVG Version: 6.00 Build 0)  -->
<svg version="1.1" id="圖層_1" xmlns="http://www.w3.org/2000/svg" xmlns:xlink="http://www.w3.org/1999/xlink" x="0px" y="0px"
	 viewBox="0 0 151.9 35.8" style="enable-background:new 0 0 151.9 35.8;" xml:space="preserve">
<style type="text/css">
	.st0{stroke:#000000;stroke-miterlimit:10;}
	.st1{fill:#DC3545;stroke:#DC3545;stroke-miterlimit:10;}
</style>
<g>
	<path class="st0" d="M127.5,21.7c0.2,1.3,0.7,2.4,1.5,3.3c1.9,2,5.9,2.2,7.8-0.4c0.3-0.5,0.7-0.6,1.2-0.6c0.6,0,1.1,0,1.7,0
		c-0.2,0.8-0.6,1.4-1.1,2c-1.4,1.8-3.3,2.7-5.6,2.7c-1.7,0-3.3-0.3-4.8-1.3c-1.6-1.2-2.6-2.7-3-4.7c-0.4-1.9-0.3-3.9,0.6-5.7
		c1.2-2.4,3.1-3.7,5.7-4c1.7-0.2,3.3,0,4.8,0.8c2,1.2,3.2,2.9,3.6,5.2c0.1,0.9,0.2,1.7,0.2,2.7C135.9,21.7,131.7,21.7,127.5,21.7z
		 M137.7,19.5c-0.2-2.5-2.4-4.5-5.1-4.5c-3.2,0-4.8,2.3-5.1,4.5C130.9,19.5,134.3,19.5,137.7,19.5z"/>
	<path class="st0" d="M102.5,15.3c0-0.7,0-1.4,0-2.2c0.8,0,1.5,0,2.3,0c0,5.1,0,10.1,0,15.2c-0.4,0-0.7,0-1.1,0c-0.4,0-0.8,0-1.2,0
		c0-0.7,0-1.5,0-2.2c-0.5,0.5-1,0.9-1.5,1.3c-0.9,0.6-1.9,1-3,1.1c-4.5,0.4-7.5-2.4-8.1-6.2c-0.3-1.9-0.2-3.7,0.6-5.4
		c1.1-2.4,3-3.8,5.7-4.1c1.7-0.2,3.2,0,4.7,1C101.4,14.3,101.9,14.8,102.5,15.3z M97.4,26.5c1.9,0,3.4-0.7,4.3-2.3
		c0.9-1.4,1.1-3,0.8-4.7c-0.2-1.3-0.8-2.4-1.8-3.3c-1.1-0.9-2.4-1.2-3.9-1.1c-1.7,0.2-3,1-3.9,2.4c-0.8,1.4-1,2.9-0.8,4.4
		C92.5,24.6,94.6,26.5,97.4,26.5z"/>
	<path class="st0" d="M56.1,28.4c-0.8,0-1.6,0-2.3,0c0-5.1,0-10.1,0-15.2c0.8,0,1.5,0,2.3,0c0,0.7,0,1.4,0,2.3
		c0.2-0.2,0.2-0.2,0.3-0.3c2.5-3,6.7-2.7,8.9-0.6c1.2,1.1,1.9,2.5,1.9,4.1c0.1,3.2,0.1,6.4,0.1,9.5c0,0.1,0,0.2,0,0.3
		c-0.8,0-1.5,0-2.4,0c0-0.2,0-0.3,0-0.5c0-2.8,0-5.7,0-8.5c0-1.2-0.4-2.3-1.3-3.2c-2.2-2.1-6.2-1.1-7.1,1.8c-0.2,0.6-0.3,1.3-0.3,2
		c0,2.6,0,5.3,0,7.9C56.1,28,56.1,28.2,56.1,28.4z"/>
	<path class="st0" d="M122.2,28.4c-0.8,0-1.5,0-2.3,0c0-0.2,0-0.3,0-0.5c0-2.7,0-5.4,0-8.1c0-1-0.2-2-0.7-2.9
		c-1.3-2.1-4.1-2.3-5.9-1.2c-1.4,0.9-2.1,2.2-2.1,3.9c0,2.8,0,5.5,0,8.3c0,0.2,0,0.3,0,0.5c-0.8,0-1.6,0-2.4,0c0-0.1,0-0.3,0-0.4
		c0-4.8,0-9.5,0-14.3c0-0.4,0.1-0.5,0.5-0.5c0.6,0,1.2,0,1.9,0c0,0.8,0,1.5,0,2.3c0.4-0.4,0.8-0.8,1.2-1.1c2.7-2.4,8.2-1.7,9.6,2.8
		c0.3,0.8,0.4,1.8,0.4,2.6c0,2.8,0,5.5,0,8.3C122.2,28.1,122.2,28.2,122.2,28.4z"/>
	<path class="st1" d="M16.5,13.2c0.8,0,1.5,0,2.3,0c0,0.2,0,0.3,0,0.5c0,2.7,0,5.4,0,8.1c0,1,0.2,2,0.7,2.9c1.4,2.1,4.5,2.5,6.4,0.8
		c1.1-0.9,1.6-2.1,1.6-3.5c0-2.8,0-5.6,0-8.4c0-0.4,0.1-0.5,0.4-0.4c0.6,0,1.3,0,1.9,0c0,5.1,0,10.2,0,15.2c-0.8,0-1.5,0-2.3,0
		c0-0.7,0-1.4,0-2.2c-0.4,0.4-0.8,0.8-1.2,1.1c-2.7,2.4-8.2,1.6-9.6-2.8c-0.3-0.8-0.3-1.7-0.4-2.6c0-2.8,0-5.6,0-8.4
		C16.4,13.4,16.4,13.3,16.5,13.2z"/>
	<path class="st1" d="M0,8.3c0.2,0,0.3,0,0.5,0c5.1,0,10.2,0,15.4,0c0.5,0,0.5,0,0.5,0.5c0,0.4,0,0.8,0,1.1c0,0.4-0.1,0.5-0.5,0.5
		c-2,0-4,0-6.1,0c-0.5,0-0.5,0-0.5,0.5c0,5.6,0,11.3,0,16.9c0,0.2,0,0.3,0,0.5c-0.8,0-1.5,0-2.3,0c0-0.1,0-0.3,0-0.4
		c0-5.7,0-11.3,0-17c0-0.5,0-0.5-0.5-0.5c-2,0-4,0-6,0C0,10.4,0,10.4,0,9.9C0,9.4,0,8.9,0,8.3z"/>
	<path class="st0" d="M74.6,28.4c-0.7,0-1.4,0-2,0c-0.1,0-0.2-0.2-0.3-0.3c0-0.1,0-0.2,0-0.4c0-4,0-8,0-12.1c0-0.4-0.1-0.5-0.5-0.5
		c-0.8,0-1.5,0-2.3,0c-0.3,0-0.4-0.1-0.4-0.4c0-0.4,0-0.9,0-1.3c0-0.3,0.1-0.3,0.3-0.3c0.8,0,1.6,0,2.4,0c0.3,0,0.4-0.1,0.4-0.4
		c0-1.5,0-3.1,0-4.6c0-0.3,0.1-0.5,0.4-0.5c0.5,0,1,0,1.5,0c0.3,0,0.4,0.1,0.4,0.4c0,1.5,0,3,0,4.5c0,0.6,0,0.6,0.6,0.6
		c0.8,0,1.7,0,2.5,0c0.3,0,0.4,0.1,0.4,0.4c0,0.4,0,0.7,0,1.1c0,0.4-0.1,0.5-0.5,0.5c-0.9,0-1.7,0-2.6,0c-0.4,0-0.5,0.1-0.5,0.5
		c0,4.1,0,8.1,0,12.2C74.6,28,74.6,28.2,74.6,28.4z"/>
	<path class="st0" d="M146.9,7.8c0,0.8,0,1.6,0,2.4c0,0.9,0,1.8,0,2.7c0,0.3,0.1,0.4,0.4,0.4c0.9,0,1.8,0,2.8,0
		c0.3,0,0.4,0.1,0.4,0.4c0,0.4,0,0.8,0,1.3c0,0.3-0.1,0.4-0.4,0.4c-0.9,0-1.8,0-2.7,0c-0.4,0-0.5,0.1-0.5,0.5c0,4.1,0,8.1,0,12.2
		c0,0.1,0,0.3,0,0.5c-0.7,0-1.4,0-2,0c-0.1,0-0.2-0.1-0.2-0.2c0-0.1,0-0.2,0-0.4c0-4,0-8.1,0-12.1c0-0.4-0.1-0.5-0.5-0.5
		c-0.7,0-1.5,0-2.2,0c-0.3,0-0.4-0.1-0.4-0.4c0-0.4,0-0.8,0-1.3c0-0.3,0.1-0.4,0.4-0.4c0.8,0,1.5,0,2.3,0c0.3,0,0.5-0.1,0.5-0.4
		c0-1.5,0-3,0-4.5c0-0.4,0.1-0.5,0.5-0.5C145.6,7.8,146.2,7.8,146.9,7.8z"/>
	<path class="st0" d="M82.9,28.4c-0.8,0-1.6,0-2.4,0c0-0.2,0-0.3,0-0.4c0-4.8,0-9.6,0-14.4c0-0.4,0.1-0.5,0.5-0.5c0.6,0,1.2,0,1.9,0
		c0,1.1,0,2.2,0,3.3c0.4-0.6,0.8-1.2,1.3-1.8c1.1-1.2,2.5-1.7,4.1-1.7c0.1,0,0.3,0.1,0.3,0.2c0,0.7,0,1.4,0,2.1
		c-0.5,0.1-0.9,0.1-1.4,0.2c-1.6,0.3-2.7,1.3-3.4,2.6c-0.7,1.1-0.9,2.4-0.9,3.7c0,2.1,0,4.1,0,6.2C82.9,28.1,82.9,28.2,82.9,28.4z"
		/>
	<path class="st1" d="M33.9,7.1c0.8,0,1.5,0,2.2,0c0,7.1,0,14.1,0,21.2c-0.7,0-1.5,0-2.2,0C33.9,21.3,33.9,14.2,33.9,7.1z"/>
	<path class="st0" d="M47.1,8.3c0.8,0,1.5,0,2.2,0c0,6.7,0,13.4,0,20.1c-0.7,0-1.5,0-2.2,0C47.1,21.7,47.1,15,47.1,8.3z"/>
</g>
</svg>
