<svg width="49" height="56" viewBox="0 0 49 56" fill="none" xmlns="http://www.w3.org/2000/svg">
<mask id="path-1-inside-1_201_128" fill="white">
<rect y="6.89148" width="48.2403" height="48.2403" rx="5"/>
</mask>
<rect y="6.89148" width="48.2403" height="48.2403" rx="5" stroke="white" stroke-width="12" mask="url(#path-1-inside-1_201_128)"/>
<path d="M19.5708 33.7601C18.642 32.7385 17.0609 32.6632 16.0393 33.592C15.0176 34.5207 14.9423 36.1019 15.8711 37.1235L19.5708 33.7601ZM22.6434 40.8566L20.7936 42.5382C21.2813 43.0747 21.9778 43.373 22.7026 43.3559C23.4274 43.3387 24.1091 43.0077 24.5708 42.4488L22.6434 40.8566ZM33.9235 31.1271C34.8029 30.0626 34.6528 28.4868 33.5883 27.6074C32.5239 26.7281 30.9481 26.8782 30.0687 27.9426L33.9235 31.1271ZM15.8711 37.1235L20.7936 42.5382L24.4933 39.1749L19.5708 33.7601L15.8711 37.1235ZM24.5708 42.4488L33.9235 31.1271L30.0687 27.9426L20.716 39.2644L24.5708 42.4488Z" fill="white"/>
<line x1="2.95361" y1="19.1589" x2="46.2714" y2="19.1589" stroke="white" stroke-width="5"/>
<line x1="10.2986" y1="8.86047" x2="10.2986" y2="8.69235e-06" stroke="white" stroke-width="5"/>
<line x1="37.8645" y1="8.86047" x2="37.8645" y2="8.69235e-06" stroke="white" stroke-width="5"/>
</svg>
